<svg width="32" height="40" viewBox="0 0 32 40" fill="none" xmlns="http://www.w3.org/2000/svg">
<path d="M15.6951 34.8887C17.9781 34.8887 19.8289 28.2229 19.8289 20.0002C19.8289 11.7775 17.9781 5.11169 15.6951 5.11169C13.412 5.11169 11.5613 11.7775 11.5613 20.0002C11.5613 28.2229 13.412 34.8887 15.6951 34.8887Z" fill="white"/>
<path d="M24.254 31.0806C25.6182 31.0806 26.724 26.1196 26.724 20C26.724 13.8803 25.6182 8.91937 24.254 8.91937C22.8899 8.91937 21.7841 13.8803 21.7841 20C21.7841 26.1196 22.8899 31.0806 24.254 31.0806Z" fill="white"/>
<path d="M30.3093 26.0204C31.0293 26.0204 31.6129 23.3248 31.6129 19.9998C31.6129 16.6747 31.0293 13.9792 30.3093 13.9792C29.5894 13.9792 29.0057 16.6747 29.0057 19.9998C29.0057 23.3248 29.5894 26.0204 30.3093 26.0204Z" fill="white"/>
<path d="M0 20C0 28.319 0.994854 35.5575 2.43568 39.2453C2.62436 39.7084 3.08748 40 3.60206 40H5.67753C6.17496 40 6.65523 39.7084 6.84391 39.2453C8.30189 35.5575 9.27959 28.319 9.27959 20C9.27959 11.681 8.28473 4.45969 6.82676 0.754717C6.63808 0.291595 6.17496 0 5.66038 0H3.58491C3.08748 0 2.6072 0.291595 2.41852 0.754717C0.994854 4.45969 0 11.681 0 20Z" fill="white"/>
</svg>
