<svg width="237" height="170" viewBox="0 0 237 170" fill="none" xmlns="http://www.w3.org/2000/svg">
<path d="M92.5 188C108.24 188 121 141.885 121 85C121 28.1147 108.24 -18 92.5 -18C76.7599 -18 64 28.1147 64 85C64 141.885 76.7599 188 92.5 188Z" fill="#131639"/>
<path d="M173.5 142C182.06 142 189 116.48 189 85C189 53.5198 182.06 28 173.5 28C164.94 28 158 53.5198 158 85C158 116.48 164.94 142 173.5 142Z" fill="#131639"/>
<path d="M5.5 106C8.53757 106 11 96.598 11 85C11 73.402 8.53757 64 5.5 64C2.46243 64 0 73.402 0 85C0 96.598 2.46243 106 5.5 106Z" fill="#131639"/>
<path d="M231.5 106C234.538 106 237 96.598 237 85C237 73.402 234.538 64 231.5 64C228.462 64 226 73.402 226 85C226 96.598 228.462 106 231.5 106Z" fill="#131639"/>
</svg>
