<svg width="300" height="123" viewBox="0 0 300 123" fill="none" xmlns="http://www.w3.org/2000/svg">
<path d="M401 55.5C401 71.2401 354.885 84 298 84C241.115 84 195 71.2401 195 55.5C195 39.7599 241.115 27 298 27C354.885 27 401 39.7599 401 55.5Z" fill="#37A7E7"/>
<path d="M107 99.5C107 112.479 68.9442 123 22 123C-24.9442 123 -63 112.479 -63 99.5C-63 86.5213 -24.9442 76 22 76C68.9442 76 107 86.5213 107 99.5Z" fill="#37A7E7"/>
<path d="M194 15.5C194 24.0604 168.48 31 137 31C105.52 31 80 24.0604 80 15.5C80 6.93958 105.52 1.1155e-06 137 2.49155e-06C168.48 3.86759e-06 194 6.93959 194 15.5Z" fill="#37A7E7"/>
<path d="M186 69.5C186 73.6421 173.016 77 157 77C140.984 77 128 73.6421 128 69.5C128 65.3579 140.984 62 157 62C173.016 62 186 65.3579 186 69.5Z" fill="#37A7E7"/>
<path d="M96 49.5C96 55.299 77.8675 60 55.5 60C33.1325 60 15 55.299 15 49.5C15 43.701 33.1325 39 55.5 39C77.8675 39 96 43.701 96 49.5Z" fill="#37A7E7"/>
<path d="M199 102.5C199 105.538 208.402 108 220 108C231.598 108 241 105.538 241 102.5C241 99.4624 231.598 97 220 97C208.402 97 199 99.4624 199 102.5Z" fill="#37A7E7"/>
</svg>
