<svg width="279" height="170" viewBox="0 0 279 170" fill="none" xmlns="http://www.w3.org/2000/svg">
<path d="M102.5 188C118.24 188 131 141.885 131 85C131 28.1147 118.24 -18 102.5 -18C86.7599 -18 74 28.1147 74 85C74 141.885 86.7599 188 102.5 188Z" fill="#C86E04"/>
<path d="M47.5 142C56.0604 142 63 116.48 63 85C63 53.5198 56.0604 28 47.5 28C38.9396 28 32 53.5198 32 85C32 116.48 38.9396 142 47.5 142Z" fill="#C86E04"/>
<path d="M7.5 114C11.6421 114 15 101.016 15 85C15 68.9837 11.6421 56 7.5 56C3.35786 56 0 68.9837 0 85C0 101.016 3.35786 114 7.5 114Z" fill="#C86E04"/>
<path d="M250.5 188C266.24 188 279 141.885 279 85C279 28.1147 266.24 -18 250.5 -18C234.76 -18 222 28.1147 222 85C222 141.885 234.76 188 250.5 188Z" fill="#C86E04"/>
<path d="M195.5 142C204.06 142 211 116.48 211 85C211 53.5198 204.06 28 195.5 28C186.94 28 180 53.5198 180 85C180 116.48 186.94 142 195.5 142Z" fill="#C86E04"/>
<path d="M155.5 114C159.642 114 163 101.016 163 85C163 68.9837 159.642 56 155.5 56C151.358 56 148 68.9837 148 85C148 101.016 151.358 114 155.5 114Z" fill="#C86E04"/>
</svg>
