<svg width="273" height="170" viewBox="0 0 273 170" fill="none" xmlns="http://www.w3.org/2000/svg">
<path d="M77.5 299C93.2401 299 106 252.885 106 196C106 139.115 93.2401 93 77.5 93C61.7599 93 49 139.115 49 196C49 252.885 61.7599 299 77.5 299Z" fill="#691EC8"/>
<path d="M37.5 92C46.0604 92 53 66.4802 53 35C53 3.51977 46.0604 -22 37.5 -22C28.9396 -22 22 3.51977 22 35C22 66.4802 28.9396 92 37.5 92Z" fill="#691EC8"/>
<path d="M91.5 84C95.6421 84 99 71.0163 99 55C99 38.9837 95.6421 26 91.5 26C87.3579 26 84 38.9837 84 55C84 71.0163 87.3579 84 91.5 84Z" fill="#691EC8"/>
<path d="M220.5 -110C236.24 -110 249 -63.8853 249 -7C249 49.8853 236.24 96 220.5 96C204.76 96 192 49.8853 192 -7C192 -63.8853 204.76 -110 220.5 -110Z" fill="#691EC8"/>
<path d="M180.5 97C189.06 97 196 122.52 196 154C196 185.48 189.06 211 180.5 211C171.94 211 165 185.48 165 154C165 122.52 171.94 97 180.5 97Z" fill="#691EC8"/>
<path d="M234.5 105C238.642 105 242 117.984 242 134C242 150.016 238.642 163 234.5 163C230.358 163 227 150.016 227 134C227 117.984 230.358 105 234.5 105Z" fill="#691EC8"/>
<path d="M5.5 142C8.53757 142 11 132.598 11 121C11 109.402 8.53757 100 5.5 100C2.46243 100 0 109.402 0 121C0 132.598 2.46243 142 5.5 142Z" fill="#691EC8"/>
<path d="M267.5 92C270.538 92 273 82.598 273 71C273 59.402 270.538 50 267.5 50C264.462 50 262 59.402 262 71C262 82.598 264.462 92 267.5 92Z" fill="#691EC8"/>
</svg>
