<svg width="24" height="24" viewBox="0 0 24 24" fill="none" xmlns="http://www.w3.org/2000/svg">
<path fill-rule="evenodd" clip-rule="evenodd" d="M24 19.3043C24 20.5497 23.5164 21.7441 22.6556 22.6247C21.7948 23.5053 20.6273 24 19.4099 24H4.59008C3.37272 24 2.20521 23.5053 1.3444 22.6247C0.483596 21.7441 0 20.5497 0 19.3043V4.69565C0 3.45029 0.483596 2.25593 1.3444 1.37532C2.20521 0.494719 3.37272 0 4.59008 0H19.4099C20.6273 0 21.7948 0.494719 22.6556 1.37532C23.5164 2.25593 24 3.45029 24 4.69565V19.3043ZM9.376 8.63687C9.376 7.21565 10.4878 5.95304 11.9995 5.95304C13.3898 5.95304 14.624 7.09043 14.624 8.63687C14.624 10.0581 13.5122 11.3207 12.0005 11.3207C11.73 11.3207 11.4705 11.4306 11.2792 11.6263C11.088 11.822 10.9805 12.0874 10.9805 12.3642V14.5482C10.9805 14.8249 11.088 15.0903 11.2792 15.286C11.4705 15.4817 11.73 15.5917 12.0005 15.5917C12.271 15.5917 12.5305 15.4817 12.7218 15.286C12.9131 15.0903 13.0205 14.8249 13.0205 14.5482V13.296C15.185 12.8108 16.664 10.8125 16.664 8.63687C16.664 5.86748 14.4455 3.86609 12.0005 3.86609C9.29236 3.86609 7.33597 6.13461 7.33597 8.63687C7.33597 8.7739 7.36235 8.90959 7.41361 9.03619C7.46487 9.16279 7.54001 9.27782 7.63472 9.37472C7.72944 9.47162 7.84189 9.54848 7.96564 9.60092C8.0894 9.65336 8.22204 9.68035 8.35599 9.68035C8.48994 9.68035 8.62258 9.65336 8.74633 9.60092C8.87008 9.54848 8.98253 9.47162 9.07725 9.37472C9.17197 9.27782 9.2471 9.16279 9.29836 9.03619C9.34962 8.90959 9.376 8.7739 9.376 8.63687ZM12.0281 19.872C12.381 19.8637 12.6717 19.6883 12.8614 19.4943C13.0562 19.296 13.2317 18.9871 13.2317 18.6125C13.2317 18.239 13.0562 17.9311 12.8614 17.7318C12.7455 17.6108 12.6068 17.515 12.4538 17.4501C12.3008 17.3852 12.1366 17.3525 11.9709 17.3541C11.619 17.3624 11.3283 17.5377 11.1386 17.7318C10.9063 17.9642 10.7732 18.2812 10.7683 18.6136C10.7683 18.9871 10.9438 19.295 11.1386 19.4943C11.2546 19.6152 11.3932 19.711 11.5462 19.7759C11.6992 19.8408 11.8624 19.8735 12.0281 19.872Z" fill="#181C1E"/>
</svg>
