<svg width="300" height="170" viewBox="0 0 300 170" fill="none" xmlns="http://www.w3.org/2000/svg">
<path d="M176.004 71.4051C185.482 78.5577 214.067 56.6596 239.849 22.4942C265.632 -11.6712 278.849 -45.166 269.371 -52.3186C259.893 -59.4712 231.308 -37.573 205.526 -3.40769C179.743 30.7577 166.526 64.2525 176.004 71.4051Z" fill="#B61616"/>
<path d="M190.581 86.8899C191.899 95.5283 218.276 98.67 249.496 93.9069C280.716 89.1438 304.956 78.2798 303.638 69.6413C302.32 61.0028 275.943 57.8612 244.723 62.6243C213.504 67.3873 189.263 78.2514 190.581 86.8899Z" fill="#B61616"/>
<path d="M181 105.891C174.092 115.535 196.748 143.59 231.602 168.554C266.456 193.517 300.31 205.936 307.217 196.292C314.125 186.648 291.469 158.593 256.615 133.629C221.761 108.666 187.907 96.2473 181 105.891Z" fill="#B61616"/>
<path d="M165.299 117.8C170.879 116.806 178.316 132.349 181.909 152.516C185.503 172.683 183.892 189.838 178.312 190.832C172.732 191.827 165.295 176.284 161.701 156.117C158.108 135.949 159.719 118.795 165.299 117.8Z" fill="#B61616"/>
<path d="M146.808 111.983C132.302 102.132 91.6811 136.643 56.0777 189.066C20.4742 241.489 3.37088 291.973 17.8763 301.824C32.3817 311.675 73.0029 277.164 108.606 224.741C144.21 172.318 161.313 121.835 146.808 111.983Z" fill="#B61616"/>
<path d="M136.412 96.3812C134.041 84.7581 98.0654 82.2835 56.0592 90.8539C14.053 99.4243 -18.0774 115.794 -15.706 127.417C-13.3345 139.041 22.6407 141.515 64.6469 132.945C106.653 124.374 138.783 108.004 136.412 96.3812Z" fill="#B61616"/>
<path d="M139.864 77.9542C146.282 67.9778 122.256 41.087 86.2014 17.892C50.1464 -5.30297 15.7152 -16.0188 9.29715 -6.04237C2.87911 3.93402 26.9047 30.8247 62.9597 54.0198C99.0147 77.2148 133.446 87.9306 139.864 77.9542Z" fill="#B61616"/>
<path d="M156.755 68.1743C161.433 67.0977 162.072 52.5193 158.181 35.6126C154.29 18.7058 147.343 5.87297 142.665 6.94957C137.987 8.02617 137.349 22.6046 141.24 39.5113C145.131 56.418 152.077 69.2509 156.755 68.1743Z" fill="#B61616"/>
</svg>
