<svg width="24" height="24" viewBox="0 0 24 24" fill="none" xmlns="http://www.w3.org/2000/svg">
<path fill-rule="evenodd" clip-rule="evenodd" d="M9.07138 0C8.61523 0 8.34806 0.298127 8.24394 0.443546C8.13384 0.597318 8.0673 0.765781 8.02656 0.881706C7.95233 1.09291 7.88691 1.36377 7.82939 1.60195L7.80845 1.68846C7.66107 2.29488 7.51878 2.78691 7.31478 3.06437C7.25108 3.15102 7.11121 3.27522 6.86105 3.4241C6.62019 3.56744 6.33684 3.69933 6.03928 3.82895C5.96924 3.85945 5.8952 3.89113 5.81982 3.92337C5.60345 4.01593 5.3761 4.11318 5.20155 4.20072C5.0836 4.25985 4.93257 4.34182 4.80043 4.44769C4.71746 4.51415 4.38057 4.78856 4.38057 5.26853C4.38057 5.74852 4.71746 6.02293 4.80043 6.08939C4.93257 6.19524 5.0836 6.27721 5.20155 6.33636C5.37612 6.4239 5.60343 6.52113 5.81982 6.61371C5.89503 6.64588 5.96938 6.6777 6.03928 6.70813C6.33684 6.83773 6.62019 6.96962 6.86105 7.11297C7.11121 7.26186 7.25108 7.38607 7.31478 7.47271C7.51878 7.75015 7.66107 8.24221 7.80845 8.84862L7.82939 8.93513C7.88691 9.17329 7.95233 9.44418 8.02656 9.65536C8.0673 9.77129 8.13384 9.93976 8.24394 10.0935C8.34806 10.2389 8.61523 10.5371 9.07138 10.5371C9.5275 10.5371 9.79469 10.2389 9.89881 10.0935C10.0089 9.93976 10.0754 9.77129 10.1162 9.65536C10.1904 9.44417 10.2558 9.17331 10.3133 8.93513L10.3343 8.84861C10.4817 8.24219 10.6239 7.75015 10.828 7.47269C10.8917 7.38605 11.0315 7.26184 11.2817 7.11297C11.5225 6.9696 11.8059 6.83771 12.1035 6.70812C12.1735 6.67761 12.2475 6.64593 12.3229 6.61368C12.5393 6.52112 12.7666 6.42388 12.9412 6.33634C13.0591 6.27719 13.2102 6.19524 13.3423 6.08937C13.4253 6.02292 13.7622 5.74852 13.7622 5.26853C13.7622 4.78853 13.4253 4.51413 13.3423 4.44768C13.2102 4.34182 13.0591 4.25985 12.9412 4.2007C12.7666 4.11317 12.5393 4.01593 12.3229 3.92337C12.2478 3.8912 12.1733 3.85936 12.1035 3.82893C11.8059 3.69933 11.5225 3.56744 11.2817 3.4241C11.0315 3.2752 10.8917 3.151 10.828 3.06436C10.6239 2.78691 10.4817 2.29486 10.3343 1.68844L10.3133 1.60194C10.2558 1.36376 10.1904 1.09291 10.1162 0.881702C10.0754 0.765777 10.0089 0.597314 9.89879 0.443543C9.79467 0.298126 9.5275 0 9.07138 0ZM9.79862 12.6376C10.9013 12.3648 11.7865 11.4845 12.0427 10.3288L12.0422 10.3311L12.05 10.2977C12.058 10.2642 12.0713 10.2098 12.0896 10.1396C12.1266 9.99723 12.1813 9.80053 12.2502 9.58651C12.3206 9.36841 12.3965 9.16137 12.472 8.98927C12.4964 8.93371 12.5174 8.88969 12.5342 8.856L12.5589 8.83871C12.6994 8.74189 12.8959 8.62795 13.1282 8.51016C13.3533 8.39595 13.5699 8.29927 13.7317 8.23088C13.8112 8.19731 13.8738 8.17209 13.9132 8.15652L13.9523 8.14122C14.6744 7.87127 15.2494 7.34488 15.5908 6.6873L21.535 5.02695L21.5445 5.02426C21.8324 4.94621 22.1343 4.93576 22.4269 4.99363C22.7195 5.0515 22.995 5.1762 23.2321 5.3581C23.4694 5.54 23.662 5.77426 23.7951 6.04288C23.8944 6.24322 23.9586 6.45869 23.9854 6.6798C23.995 6.74391 23.9998 6.80908 23.9998 6.87485V6.91107L24 6.91474L23.9998 9.20707V17.0791C23.9998 17.1264 23.9974 17.1732 23.9925 17.2193C23.8735 19.1318 22.2947 20.6458 20.3645 20.6458C18.357 20.6458 16.7295 19.0077 16.7295 16.9867C16.7295 14.9658 18.357 13.3276 20.3645 13.3276C20.7208 13.3276 21.0651 13.3792 21.3904 13.4753V10.9349L12.408 13.4465V20.3119L12.4082 20.3409C12.4082 22.3617 10.7806 24 8.773 24C6.76536 24 5.13784 22.3617 5.13784 20.3409C5.13784 18.32 6.76536 16.6817 8.773 16.6817C9.12915 16.6817 9.47335 16.7333 9.79862 16.8294V12.6376ZM3.27749 9.99606C3.99806 9.99606 4.58221 10.5841 4.58221 11.3094V11.9819H5.25038C5.97096 11.9819 6.55509 12.5699 6.55509 13.2952C6.55509 14.0205 5.97096 14.6085 5.25038 14.6085H4.58221V15.2811C4.58221 16.0064 3.99806 16.5944 3.27749 16.5944C2.55693 16.5944 1.97278 16.0064 1.97278 15.2811V14.6085H1.30471C0.58414 14.6085 0 14.0205 0 13.2952C0 12.5699 0.58414 11.9819 1.30471 11.9819H1.97278V11.3094C1.97278 10.5841 2.55693 9.99606 3.27749 9.99606Z" fill="#181C1E"/>
</svg>
